<svg width="326" height="319" viewBox="0 0 326 319" fill="none" xmlns="http://www.w3.org/2000/svg">
<g clip-path="url(#clip0_2003_15)">
<path d="M163.271 319.265C253.293 319.265 326.271 247.854 326.271 159.765C326.271 71.6755 253.293 0.264893 163.271 0.264893C73.2483 0.264893 0.270752 71.6755 0.270752 159.765C0.270752 247.854 73.2483 319.265 163.271 319.265Z" fill="#07038D" fill-opacity="0.29"/>
<path d="M163.271 297.709C241.127 297.709 304.241 235.949 304.241 159.765C304.241 83.5808 241.127 21.8213 163.271 21.8213C85.4149 21.8213 22.3002 83.5808 22.3002 159.765C22.3002 235.949 85.4149 297.709 163.271 297.709Z" fill="white" fill-opacity="0.71"/>
<path d="M163.271 187.351C178.841 187.351 191.463 175 191.463 159.765C191.463 144.529 178.841 132.178 163.271 132.178C147.701 132.178 135.079 144.529 135.079 159.765C135.079 175 147.701 187.351 163.271 187.351Z" fill="#07038D" fill-opacity="0.29"/>
<path d="M163.271 21.8213L168.556 104.83L163.271 145.929L157.985 104.83L163.271 21.8213Z" fill="#07038D" fill-opacity="0.29"/>
<path d="M181.672 29.0333C185.078 29.0333 187.84 26.3311 187.84 22.9977C187.84 19.6644 185.078 16.9622 181.672 16.9622C178.265 16.9622 175.504 19.6644 175.504 22.9977C175.504 26.3311 178.265 29.0333 181.672 29.0333Z" fill="#07038D" fill-opacity="0.29"/>
<path d="M163.271 297.709L157.985 214.7L163.271 173.601L168.556 214.7L163.271 297.709Z" fill="#07038D" fill-opacity="0.29"/>
<path d="M144.87 302.568C148.276 302.568 151.038 299.865 151.038 296.532C151.038 293.199 148.276 290.497 144.87 290.497C141.463 290.497 138.702 293.199 138.702 296.532C138.702 299.865 141.463 302.568 144.87 302.568Z" fill="#07038D" fill-opacity="0.29"/>
<path d="M199.759 26.5217L182.907 108.042L166.932 146.401L172.699 105.36L199.759 26.5164V26.5217Z" fill="#07038D" fill-opacity="0.29"/>
<path d="M217.218 38.3543C220.624 38.3543 223.386 35.6521 223.386 32.3188C223.386 28.9854 220.624 26.2832 217.218 26.2832C213.811 26.2832 211.05 28.9854 211.05 32.3188C211.05 35.6521 213.811 38.3543 217.218 38.3543Z" fill="#07038D" fill-opacity="0.29"/>
<path d="M126.783 293.009L143.635 211.489L159.61 173.129L153.843 214.17L126.783 293.014V293.009Z" fill="#07038D" fill-opacity="0.29"/>
<path d="M109.324 293.247C112.73 293.247 115.492 290.545 115.492 287.211C115.492 283.878 112.73 281.176 109.324 281.176C105.917 281.176 103.156 283.878 103.156 287.211C103.156 290.545 105.917 293.247 109.324 293.247Z" fill="#07038D" fill-opacity="0.29"/>
<path d="M233.756 40.2991L195.919 114.777L170.338 147.784L186.762 109.605L233.756 40.3044V40.2991Z" fill="#07038D" fill-opacity="0.29"/>
<path d="M249.092 56.3604C252.499 56.3604 255.26 53.6582 255.26 50.3249C255.26 46.9915 252.499 44.2893 249.092 44.2893C245.686 44.2893 242.924 46.9915 242.924 50.3249C242.924 53.6582 245.686 56.3604 249.092 56.3604Z" fill="#07038D" fill-opacity="0.29"/>
<path d="M92.7854 279.231L130.622 204.754L156.204 171.746L139.779 209.925L92.7854 279.226V279.231Z" fill="#07038D" fill-opacity="0.29"/>
<path d="M77.4494 275.241C80.8559 275.241 83.6174 272.539 83.6174 269.205C83.6174 265.872 80.8559 263.17 77.4494 263.17C74.0429 263.17 71.2814 265.872 71.2814 269.205C71.2814 272.539 74.0429 275.241 77.4494 275.241Z" fill="#07038D" fill-opacity="0.29"/>
<path d="M262.955 62.2211L206.707 124.574L173.267 149.978L199.228 117.257L262.95 62.2158L262.955 62.2211Z" fill="#07038D" fill-opacity="0.29"/>
<path d="M275.113 81.8221C278.519 81.8221 281.281 79.1199 281.281 75.7865C281.281 72.4532 278.519 69.751 275.113 69.751C271.706 69.751 268.945 72.4532 268.945 75.7865C268.945 79.1199 271.706 81.8221 275.113 81.8221Z" fill="#07038D" fill-opacity="0.29"/>
<path d="M63.5863 257.309L119.835 194.956L153.274 169.552L127.313 202.274L63.5917 257.315L63.5863 257.309Z" fill="#07038D" fill-opacity="0.29"/>
<path d="M51.429 249.779C54.8355 249.779 57.597 247.077 57.597 243.744C57.597 240.41 54.8355 237.708 51.429 237.708C48.0225 237.708 45.261 240.41 45.261 243.744C45.261 247.077 48.0225 249.779 51.429 249.779Z" fill="#07038D" fill-opacity="0.29"/>
<path d="M285.358 90.7932L214.537 136.778L175.52 152.85L209.252 127.817L285.364 90.7932H285.358Z" fill="#07038D" fill-opacity="0.29"/>
<path d="M293.514 113.012C296.92 113.012 299.682 110.31 299.682 106.976C299.682 103.643 296.92 100.941 293.514 100.941C290.107 100.941 287.346 103.643 287.346 106.976C287.346 110.31 290.107 113.012 293.514 113.012Z" fill="#07038D" fill-opacity="0.29"/>
<path d="M41.1833 228.737L112.004 182.752L151.021 166.68L117.29 191.713L41.1779 228.737H41.1833Z" fill="#07038D" fill-opacity="0.29"/>
<path d="M33.0279 218.589C36.4344 218.589 39.1959 215.887 39.1959 212.554C39.1959 209.22 36.4344 206.518 33.0279 206.518C29.6214 206.518 26.8599 209.22 26.8599 212.554C26.8599 215.887 29.6214 218.589 33.0279 218.589Z" fill="#07038D" fill-opacity="0.29"/>
<path d="M299.438 124.06L218.864 150.539L176.923 156.183L216.124 140.551L299.433 124.06H299.438Z" fill="#07038D" fill-opacity="0.29"/>
<path d="M303.039 147.795C306.446 147.795 309.207 145.092 309.207 141.759C309.207 138.426 306.446 135.723 303.039 135.723C299.633 135.723 296.871 138.426 296.871 141.759C296.871 145.092 299.633 147.795 303.039 147.795Z" fill="#07038D" fill-opacity="0.29"/>
<path d="M27.1035 195.47L107.677 168.991L149.619 163.347L110.418 178.979L27.1089 195.47H27.1035Z" fill="#07038D" fill-opacity="0.29"/>
<path d="M23.5024 183.807C26.9089 183.807 29.6704 181.105 29.6704 177.771C29.6704 174.438 26.9089 171.736 23.5024 171.736C20.0959 171.736 17.3344 174.438 17.3344 177.771C17.3344 181.105 20.0959 183.807 23.5024 183.807Z" fill="#07038D" fill-opacity="0.29"/>
<path d="M304.242 159.765L219.411 164.937L177.41 159.765L219.411 154.593L304.242 159.765Z" fill="#07038D" fill-opacity="0.29"/>
<path d="M303.039 183.807C306.446 183.807 309.207 181.105 309.207 177.771C309.207 174.438 306.446 171.736 303.039 171.736C299.633 171.736 296.871 174.438 296.871 177.771C296.871 181.105 299.633 183.807 303.039 183.807Z" fill="#07038D" fill-opacity="0.29"/>
<path d="M22.3002 159.765L107.131 154.593L149.132 159.765L107.131 164.937L22.3002 159.765Z" fill="#07038D" fill-opacity="0.29"/>
<path d="M23.5024 147.795C26.9089 147.795 29.6704 145.093 29.6704 141.759C29.6704 138.426 26.9089 135.724 23.5024 135.724C20.0959 135.724 17.3344 138.426 17.3344 141.759C17.3344 145.093 20.0959 147.795 23.5024 147.795Z" fill="#07038D" fill-opacity="0.29"/>
<path d="M299.438 195.47L216.129 178.979L176.928 163.347L218.87 168.991L299.444 195.47H299.438Z" fill="#07038D" fill-opacity="0.29"/>
<path d="M293.514 218.589C296.92 218.589 299.682 215.887 299.682 212.554C299.682 209.22 296.92 206.518 293.514 206.518C290.107 206.518 287.346 209.22 287.346 212.554C287.346 215.887 290.107 218.589 293.514 218.589Z" fill="#07038D" fill-opacity="0.29"/>
<path d="M27.1036 124.061L110.412 140.551L149.613 156.183L107.672 150.54L27.0981 124.061H27.1036Z" fill="#07038D" fill-opacity="0.29"/>
<path d="M33.0279 113.012C36.4344 113.012 39.1959 110.31 39.1959 106.976C39.1959 103.643 36.4344 100.941 33.0279 100.941C29.6214 100.941 26.8599 103.643 26.8599 106.976C26.8599 110.31 29.6214 113.012 33.0279 113.012Z" fill="#07038D" fill-opacity="0.29"/>
<path d="M285.358 228.737L209.246 191.713L175.515 166.68L214.532 182.752L285.353 228.737H285.358Z" fill="#07038D" fill-opacity="0.29"/>
<path d="M275.113 249.779C278.519 249.779 281.281 247.077 281.281 243.744C281.281 240.41 278.519 237.708 275.113 237.708C271.706 237.708 268.945 240.41 268.945 243.744C268.945 247.077 271.706 249.779 275.113 249.779Z" fill="#07038D" fill-opacity="0.29"/>
<path d="M41.1832 90.793L117.295 127.817L151.027 152.85L112.01 136.778L41.1886 90.793H41.1832Z" fill="#07038D" fill-opacity="0.29"/>
<path d="M51.429 81.8219C54.8355 81.8219 57.597 79.1196 57.597 75.7863C57.597 72.4529 54.8355 69.7507 51.429 69.7507C48.0225 69.7507 45.261 72.4529 45.261 75.7863C45.261 79.1196 48.0225 81.8219 51.429 81.8219Z" fill="#07038D" fill-opacity="0.29"/>
<path d="M262.955 257.309L199.234 202.268L173.273 169.547L206.712 194.95L262.961 257.304L262.955 257.309Z" fill="#07038D" fill-opacity="0.29"/>
<path d="M249.092 275.241C252.499 275.241 255.26 272.539 255.26 269.205C255.26 265.872 252.499 263.17 249.092 263.17C245.686 263.17 242.924 265.872 242.924 269.205C242.924 272.539 245.686 275.241 249.092 275.241Z" fill="#07038D" fill-opacity="0.29"/>
<path d="M63.5862 62.2209L127.308 117.262L153.269 149.983L119.829 124.58L63.5808 62.2262L63.5862 62.2209Z" fill="#07038D" fill-opacity="0.29"/>
<path d="M77.4494 56.3602C80.8559 56.3602 83.6174 53.658 83.6174 50.3246C83.6174 46.9913 80.8559 44.2891 77.4494 44.2891C74.0429 44.2891 71.2814 46.9913 71.2814 50.3246C71.2814 53.658 74.0429 56.3602 77.4494 56.3602Z" fill="#07038D" fill-opacity="0.29"/>
<path d="M233.756 279.231L186.762 209.931L170.338 171.751L195.919 204.759L233.756 279.236V279.231Z" fill="#07038D" fill-opacity="0.29"/>
<path d="M217.218 293.247C220.624 293.247 223.386 290.545 223.386 287.211C223.386 283.878 220.624 281.176 217.218 281.176C213.811 281.176 211.05 283.878 211.05 287.211C211.05 290.545 213.811 293.247 217.218 293.247Z" fill="#07038D" fill-opacity="0.29"/>
<path d="M92.7854 40.299L139.779 109.599L156.204 147.779L130.622 114.771L92.7854 40.2937V40.299Z" fill="#07038D" fill-opacity="0.29"/>
<path d="M109.324 38.3543C112.73 38.3543 115.492 35.6521 115.492 32.3188C115.492 28.9854 112.73 26.2832 109.324 26.2832C105.917 26.2832 103.156 28.9854 103.156 32.3188C103.156 35.6521 105.917 38.3543 109.324 38.3543Z" fill="#07038D" fill-opacity="0.29"/>
<path d="M199.759 293.008L172.699 214.165L166.932 173.124L182.907 211.483L199.759 293.003V293.008Z" fill="#07038D" fill-opacity="0.29"/>
<path d="M181.672 302.568C185.078 302.568 187.84 299.866 187.84 296.532C187.84 293.199 185.078 290.497 181.672 290.497C178.265 290.497 175.504 293.199 175.504 296.532C175.504 299.866 178.265 302.568 181.672 302.568Z" fill="#07038D" fill-opacity="0.29"/>
<path d="M126.783 26.5215L153.843 105.365L159.61 146.406L143.635 108.047L126.783 26.5268V26.5215Z" fill="#07038D" fill-opacity="0.29"/>
<path d="M144.87 29.0333C148.276 29.0333 151.038 26.3311 151.038 22.9977C151.038 19.6644 148.276 16.9622 144.87 16.9622C141.463 16.9622 138.702 19.6644 138.702 22.9977C138.702 26.3311 141.463 29.0333 144.87 29.0333Z" fill="#07038D" fill-opacity="0.29"/>
</g>
<defs>
<clipPath id="clip0_2003_15">
<rect width="326" height="319" fill="white"/>
</clipPath>
</defs>
</svg>
